<svg xmlns="http://www.w3.org/2000/svg" width="43" height="39" viewBox="0 0 43 39">
  <g id="Group_2654" data-name="Group 2654" transform="translate(-1051 -515)">
    <rect id="Rectangle_1485" data-name="Rectangle 1485" width="43" height="39" transform="translate(1051 515)" fill="#8ec131"/>
    <path id="Icon_awesome-file-medical-alt" data-name="Icon awesome-file-medical-alt" d="M12.921,6.1V0H3.948A1.074,1.074,0,0,0,2.871,1.077V11.485H.359A.36.36,0,0,0,0,11.844v.718a.36.36,0,0,0,.359.359H6.68a.366.366,0,0,1,.323.2L7.9,14.9l2.548-5.1a.358.358,0,0,1,.642,0l1.557,3.118h3.149a.718.718,0,0,1,0,1.436H11.759l-.991-1.983-2.548,5.1a.358.358,0,0,1-.642,0L6.016,14.356H2.871v7.537A1.074,1.074,0,0,0,3.948,22.97H19.022A1.074,1.074,0,0,0,20.1,21.893V7.178H14A1.08,1.08,0,0,1,12.921,6.1Zm6.864-1.391L15.393.314A1.076,1.076,0,0,0,14.63,0h-.274V5.743H20.1V5.469A1.073,1.073,0,0,0,19.785,4.711Z" transform="translate(1060.482 522.063)" fill="#fff"/>
  </g>
</svg>
