<svg xmlns="http://www.w3.org/2000/svg" width="43" height="39" viewBox="0 0 43 39">
  <g id="operation_" data-name="operation " transform="translate(-576 -515)">
    <rect id="Rectangle_1483" data-name="Rectangle 1483" width="43" height="39" transform="translate(576 515)" fill="#8ec131"/>
    <path id="Icon_awesome-bed" data-name="Icon awesome-bed" d="M6.646,11.75A3.021,3.021,0,1,0,3.625,8.729,3.024,3.024,0,0,0,6.646,11.75ZM19.938,6.917H11.479a.6.6,0,0,0-.6.6v5.437H2.417V5.1a.6.6,0,0,0-.6-.6H.6a.6.6,0,0,0-.6.6V18.4a.6.6,0,0,0,.6.6H1.812a.6.6,0,0,0,.6-.6V16.583H21.75V18.4a.6.6,0,0,0,.6.6h1.208a.6.6,0,0,0,.6-.6v-7.25A4.229,4.229,0,0,0,19.938,6.917Z" transform="translate(585.417 523.25)" fill="#fff"/>
  </g>
</svg>
