<svg xmlns="http://www.w3.org/2000/svg" width="43" height="39" viewBox="0 0 43 39">
  <g id="Group_2655" data-name="Group 2655" transform="translate(-1272 -515)">
    <rect id="Rectangle_1486" data-name="Rectangle 1486" width="43" height="39" transform="translate(1272 515)" fill="#8ec131"/>
    <path id="Icon_ionic-ios-water" data-name="Icon ionic-ios-water" d="M18.883,8.038a21.193,21.193,0,0,0-4.3-4.578.405.405,0,0,0-.493,0A20.934,20.934,0,0,0,9.8,8.029a14.377,14.377,0,0,0-3.043,8.1c0,.057,0,.118,0,.175a6.194,6.194,0,0,0,.517,2.469,6.659,6.659,0,0,0,.72,1.246,7.823,7.823,0,0,0,6.341,3.071c4.19,0,7.588-3.038,7.588-6.787A14.432,14.432,0,0,0,18.883,8.038ZM14.807,20.564h-.024a.416.416,0,0,1-.123-.81,5.9,5.9,0,0,0,4.095-3.829.412.412,0,0,1,.8.147v.066A4.6,4.6,0,0,1,14.807,20.564Z" transform="translate(1279.167 521.768)" fill="#fff"/>
  </g>
</svg>
