<svg xmlns="http://www.w3.org/2000/svg" width="43" height="39" viewBox="0 0 43 39">
  <g id="emergency" transform="translate(-344 -515)">
    <rect id="Rectangle_1482" data-name="Rectangle 1482" width="43" height="39" transform="translate(344 515)" fill="#8ec131"/>
    <path id="Icon_awesome-ambulance" data-name="Icon awesome-ambulance" d="M23.156,13.063h-.594V9.051a1.781,1.781,0,0,0-.523-1.258L18.332,4.086a1.781,1.781,0,0,0-1.258-.523H15.438V1.781A1.782,1.782,0,0,0,13.656,0H1.781A1.782,1.782,0,0,0,0,1.781V13.656a1.782,1.782,0,0,0,1.781,1.781h.594a3.563,3.563,0,0,0,7.125,0h4.75a3.563,3.563,0,0,0,7.125,0h1.781a.6.6,0,0,0,.594-.594V13.656A.6.6,0,0,0,23.156,13.063ZM5.938,17.219a1.781,1.781,0,1,1,1.781-1.781A1.782,1.782,0,0,1,5.938,17.219Zm5.344-9.2a.3.3,0,0,1-.3.3H8.906v2.078a.3.3,0,0,1-.3.3H6.828a.3.3,0,0,1-.3-.3V8.313H4.453a.3.3,0,0,1-.3-.3V6.234a.3.3,0,0,1,.3-.3H6.531V3.859a.3.3,0,0,1,.3-.3H8.609a.3.3,0,0,1,.3.3V5.938h2.078a.3.3,0,0,1,.3.3Zm6.531,9.2a1.781,1.781,0,1,1,1.781-1.781A1.782,1.782,0,0,1,17.813,17.219ZM20.781,9.5H15.438V5.344h1.637l3.707,3.707Z" transform="translate(353.625 526)" fill="#fff"/>
  </g>
</svg>
